<mxfile host="app.diagrams.net" modified="2023-04-20T21:32:12.731Z" agent="Mozilla/5.0 (Windows NT 10.0; Win64; x64) AppleWebKit/537.36 (KHTML, like Gecko) Chrome/111.0.0.0 Safari/537.36 OPR/97.0.0.0" etag="6DmKXcm8cyGfjsf9Cg7E" version="21.1.8" type="github">
  <diagram name="PÃ¡gina-1" id="rmb7cEEVly5PTvQ3hhuQ">
    <mxGraphModel dx="833" dy="464" grid="1" gridSize="10" guides="1" tooltips="1" connect="1" arrows="1" fold="1" page="1" pageScale="1" pageWidth="827" pageHeight="1169" math="0" shadow="0">
      <root>
        <mxCell id="0" />
        <mxCell id="1" parent="0" />
        <mxCell id="jD7HDN5rc9fZ81zPDZF--2" value="Vertical Container" style="swimlane;whiteSpace=wrap;html=1;" vertex="1" parent="1">
          <mxGeometry x="130" y="50" width="230" height="390" as="geometry" />
        </mxCell>
        <mxCell id="jD7HDN5rc9fZ81zPDZF--3" value="" style="ellipse;whiteSpace=wrap;html=1;" vertex="1" parent="jD7HDN5rc9fZ81zPDZF--2">
          <mxGeometry x="10" y="30" width="40" height="100" as="geometry" />
        </mxCell>
        <mxCell id="jD7HDN5rc9fZ81zPDZF--4" value="" style="endArrow=none;html=1;rounded=0;" edge="1" parent="jD7HDN5rc9fZ81zPDZF--2">
          <mxGeometry width="50" height="50" relative="1" as="geometry">
            <mxPoint y="140" as="sourcePoint" />
            <mxPoint x="230" y="140" as="targetPoint" />
          </mxGeometry>
        </mxCell>
        <mxCell id="jD7HDN5rc9fZ81zPDZF--6" value="" style="endArrow=none;dashed=1;html=1;rounded=0;" edge="1" parent="jD7HDN5rc9fZ81zPDZF--2">
          <mxGeometry width="50" height="50" relative="1" as="geometry">
            <mxPoint x="60" y="40" as="sourcePoint" />
            <mxPoint x="150" y="40" as="targetPoint" />
          </mxGeometry>
        </mxCell>
        <mxCell id="jD7HDN5rc9fZ81zPDZF--7" value="" style="endArrow=none;dashed=1;html=1;rounded=0;" edge="1" parent="jD7HDN5rc9fZ81zPDZF--2">
          <mxGeometry width="50" height="50" relative="1" as="geometry">
            <mxPoint x="60" y="60" as="sourcePoint" />
            <mxPoint x="150" y="60" as="targetPoint" />
          </mxGeometry>
        </mxCell>
        <mxCell id="jD7HDN5rc9fZ81zPDZF--8" value="" style="endArrow=none;dashed=1;html=1;rounded=0;" edge="1" parent="jD7HDN5rc9fZ81zPDZF--2">
          <mxGeometry width="50" height="50" relative="1" as="geometry">
            <mxPoint x="60" y="79.5" as="sourcePoint" />
            <mxPoint x="150" y="79.5" as="targetPoint" />
          </mxGeometry>
        </mxCell>
        <mxCell id="jD7HDN5rc9fZ81zPDZF--9" value="" style="swimlane;startSize=0;" vertex="1" parent="jD7HDN5rc9fZ81zPDZF--2">
          <mxGeometry x="20" y="220" width="180" height="140" as="geometry" />
        </mxCell>
        <mxCell id="jD7HDN5rc9fZ81zPDZF--11" value="" style="endArrow=none;html=1;rounded=0;exitX=0.5;exitY=1;exitDx=0;exitDy=0;entryX=0.5;entryY=0;entryDx=0;entryDy=0;" edge="1" parent="jD7HDN5rc9fZ81zPDZF--2" source="jD7HDN5rc9fZ81zPDZF--9" target="jD7HDN5rc9fZ81zPDZF--9">
          <mxGeometry width="50" height="50" relative="1" as="geometry">
            <mxPoint x="80" y="300" as="sourcePoint" />
            <mxPoint x="130" y="250" as="targetPoint" />
          </mxGeometry>
        </mxCell>
        <mxCell id="jD7HDN5rc9fZ81zPDZF--13" value="" style="endArrow=none;html=1;rounded=0;entryX=1;entryY=0.25;entryDx=0;entryDy=0;exitX=0;exitY=0.25;exitDx=0;exitDy=0;" edge="1" parent="jD7HDN5rc9fZ81zPDZF--2" source="jD7HDN5rc9fZ81zPDZF--9" target="jD7HDN5rc9fZ81zPDZF--9">
          <mxGeometry width="50" height="50" relative="1" as="geometry">
            <mxPoint x="20" y="270" as="sourcePoint" />
            <mxPoint x="70" y="220" as="targetPoint" />
          </mxGeometry>
        </mxCell>
        <mxCell id="jD7HDN5rc9fZ81zPDZF--12" value="" style="endArrow=none;html=1;rounded=0;entryX=1;entryY=0.75;entryDx=0;entryDy=0;exitX=0;exitY=0.75;exitDx=0;exitDy=0;" edge="1" parent="jD7HDN5rc9fZ81zPDZF--2" source="jD7HDN5rc9fZ81zPDZF--9" target="jD7HDN5rc9fZ81zPDZF--9">
          <mxGeometry width="50" height="50" relative="1" as="geometry">
            <mxPoint x="20" y="290" as="sourcePoint" />
            <mxPoint x="70" y="240" as="targetPoint" />
            <Array as="points" />
          </mxGeometry>
        </mxCell>
        <mxCell id="jD7HDN5rc9fZ81zPDZF--5" value="" style="endArrow=none;html=1;rounded=0;exitX=0;exitY=0.5;exitDx=0;exitDy=0;entryX=1;entryY=0.5;entryDx=0;entryDy=0;" edge="1" parent="1" source="jD7HDN5rc9fZ81zPDZF--2" target="jD7HDN5rc9fZ81zPDZF--2">
          <mxGeometry width="50" height="50" relative="1" as="geometry">
            <mxPoint x="130" y="260" as="sourcePoint" />
            <mxPoint x="180" y="210" as="targetPoint" />
          </mxGeometry>
        </mxCell>
        <mxCell id="jD7HDN5rc9fZ81zPDZF--25" value="Vertical Container" style="swimlane;whiteSpace=wrap;html=1;" vertex="1" parent="1">
          <mxGeometry x="390" y="50" width="230" height="390" as="geometry" />
        </mxCell>
        <mxCell id="jD7HDN5rc9fZ81zPDZF--26" value="" style="ellipse;whiteSpace=wrap;html=1;" vertex="1" parent="jD7HDN5rc9fZ81zPDZF--25">
          <mxGeometry x="10" y="30" width="40" height="100" as="geometry" />
        </mxCell>
        <mxCell id="jD7HDN5rc9fZ81zPDZF--27" value="" style="endArrow=none;html=1;rounded=0;" edge="1" parent="jD7HDN5rc9fZ81zPDZF--25">
          <mxGeometry width="50" height="50" relative="1" as="geometry">
            <mxPoint y="140" as="sourcePoint" />
            <mxPoint x="230" y="140" as="targetPoint" />
          </mxGeometry>
        </mxCell>
        <mxCell id="jD7HDN5rc9fZ81zPDZF--28" value="" style="endArrow=none;dashed=1;html=1;rounded=0;" edge="1" parent="jD7HDN5rc9fZ81zPDZF--25">
          <mxGeometry width="50" height="50" relative="1" as="geometry">
            <mxPoint x="60" y="40" as="sourcePoint" />
            <mxPoint x="150" y="40" as="targetPoint" />
          </mxGeometry>
        </mxCell>
        <mxCell id="jD7HDN5rc9fZ81zPDZF--29" value="" style="endArrow=none;dashed=1;html=1;rounded=0;" edge="1" parent="jD7HDN5rc9fZ81zPDZF--25">
          <mxGeometry width="50" height="50" relative="1" as="geometry">
            <mxPoint x="60" y="60" as="sourcePoint" />
            <mxPoint x="150" y="60" as="targetPoint" />
          </mxGeometry>
        </mxCell>
        <mxCell id="jD7HDN5rc9fZ81zPDZF--30" value="" style="endArrow=none;dashed=1;html=1;rounded=0;" edge="1" parent="jD7HDN5rc9fZ81zPDZF--25">
          <mxGeometry width="50" height="50" relative="1" as="geometry">
            <mxPoint x="60" y="79.5" as="sourcePoint" />
            <mxPoint x="150" y="79.5" as="targetPoint" />
          </mxGeometry>
        </mxCell>
        <mxCell id="jD7HDN5rc9fZ81zPDZF--36" value="" style="ellipse;whiteSpace=wrap;html=1;" vertex="1" parent="jD7HDN5rc9fZ81zPDZF--25">
          <mxGeometry x="20" y="220" width="190" height="20" as="geometry" />
        </mxCell>
        <mxCell id="jD7HDN5rc9fZ81zPDZF--37" value="" style="rounded=1;whiteSpace=wrap;html=1;" vertex="1" parent="jD7HDN5rc9fZ81zPDZF--25">
          <mxGeometry x="20" y="260" width="190" height="50" as="geometry" />
        </mxCell>
        <mxCell id="jD7HDN5rc9fZ81zPDZF--35" value="" style="endArrow=none;html=1;rounded=0;exitX=0;exitY=0.5;exitDx=0;exitDy=0;entryX=1;entryY=0.5;entryDx=0;entryDy=0;" edge="1" source="jD7HDN5rc9fZ81zPDZF--25" target="jD7HDN5rc9fZ81zPDZF--25" parent="1">
          <mxGeometry width="50" height="50" relative="1" as="geometry">
            <mxPoint x="390" y="260" as="sourcePoint" />
            <mxPoint x="440" y="210" as="targetPoint" />
          </mxGeometry>
        </mxCell>
      </root>
    </mxGraphModel>
  </diagram>
</mxfile>
